<svg xmlns="http://www.w3.org/2000/svg" width="36" height="36" viewBox="0 0 36 36"><defs><style>.a{fill:#222;}</style></defs><g transform="translate(-2 -2)"><path class="a" d="M30.8,36h5.4A1.8,1.8,0,0,0,38,34.2V21.6a1.8,1.8,0,0,0-1.8-1.8H30.8V18.6a.6.6,0,0,0-.6-.6H9.8a.6.6,0,0,0-.6.6V37.8a2.969,2.969,0,0,0,.616,1.8H2.6a.6.6,0,0,0-.6.6v1.2a3,3,0,0,0,3,3H35a3,3,0,0,0,3-3V40.2a.6.6,0,0,0-.6-.6H30.184a2.969,2.969,0,0,0,.616-1.8Zm0-11.989,3-.011v7.8h-3ZM36.2,21a.6.6,0,0,1,.6.6V34.2a.6.6,0,0,1-.6.6H30.8V33h3.6a.6.6,0,0,0,.6-.6v-9a.6.6,0,0,0-.6-.6h0l-3.6.011V21Zm.6,20.4A1.8,1.8,0,0,1,35,43.2H5a1.8,1.8,0,0,1-1.8-1.8v-.6H36.8ZM12.2,39.6a1.8,1.8,0,0,1-1.8-1.8v-15h1.2V21.6H10.4V19.2H29.6v2.408L12.8,21.6v1.2l16.8.008V37.8a1.8,1.8,0,0,1-1.8,1.8Z" transform="translate(0 -6.4)"/><path class="a" d="M20,11h1.2a3,3,0,0,0,3-3H23a1.8,1.8,0,0,1-1.8,1.8H20a3,3,0,0,0-3,3h1.2A1.8,1.8,0,0,1,20,11Z" transform="translate(-6 -2.4)"/><path class="a" d="M41,11.8h1.2A1.8,1.8,0,0,1,44,10h1.2a3,3,0,0,0,3-3H47a1.8,1.8,0,0,1-1.8,1.8H44a3,3,0,0,0-3,3Z" transform="translate(-15.6 -2)"/><path class="a" d="M36,5h1.2a3,3,0,0,0,3-3H39a1.8,1.8,0,0,1-1.8,1.8H36a3,3,0,0,0-3,3h1.2A1.8,1.8,0,0,1,36,5Z" transform="translate(-12.4)"/></g></svg>