<svg xmlns="http://www.w3.org/2000/svg" width="38.837" height="36" viewBox="0 0 38.837 36"><defs><style>.a{fill:#222;}</style></defs><g transform="translate(0.001)"><path class="a" d="M390.618,332.983a.758.758,0,1,0,.537.928A.757.757,0,0,0,390.618,332.983Zm0,0" transform="translate(-360.108 -307.701)"/><path class="a" d="M103.3,334.447a.758.758,0,1,0-.928-.536A.758.758,0,0,0,103.3,334.447Zm0,0" transform="translate(-94.582 -307.701)"/><path class="a" d="M37.968,24.331a18.362,18.362,0,0,0,.851-5.385A18.544,18.544,0,0,0,33.033,5.54,19.625,19.625,0,0,0,19.418,0C8.963,0,.017,8.459.017,18.946a18.362,18.362,0,0,0,.851,5.386,2.285,2.285,0,0,0-.792,2.375l1.962,7.319a2.272,2.272,0,0,0,2.784,1.609l2.322-.623a2.278,2.278,0,0,0,2.462.91l2.928-.785a2.276,2.276,0,0,0,1.607-2.784L11.4,22.105A2.277,2.277,0,0,0,8.612,20.5l-2.927.784a2.259,2.259,0,0,0-.82.412,13.37,13.37,0,0,1-.282-2.1A2.229,2.229,0,0,0,6.14,17.686c.625-6.409,6.581-11.623,13.277-11.623S32.07,11.277,32.695,17.686A2.229,2.229,0,0,0,34.253,19.6a13.371,13.371,0,0,1-.282,2.1,2.262,2.262,0,0,0-.82-.412L30.224,20.5a2.276,2.276,0,0,0-2.785,1.607L24.693,32.353A2.276,2.276,0,0,0,26.3,35.138l2.929.785a2.278,2.278,0,0,0,2.462-.91l2.323.623A2.273,2.273,0,0,0,36.8,34.027l1.962-7.321A2.287,2.287,0,0,0,37.968,24.331ZM6.076,22.746,9,21.961a.759.759,0,0,1,.929.536l2.746,10.248a.759.759,0,0,1-.536.928l-.732.2-1.372-5.124a.758.758,0,1,0-1.464.392l1.373,5.125-.732.2a.76.76,0,0,1-.928-.536h0L5.54,23.674A.758.758,0,0,1,6.076,22.746Zm.55,10.836-2.2.589a.758.758,0,0,1-.929-.536L1.54,26.316a.761.761,0,0,1,.488-.914l.048-.015,2.165-.58C4.462,25.358,4.059,24.094,6.626,33.582ZM1.553,19.7H3.07a15.428,15.428,0,0,0,.666,3.669l-1.457.391A17.287,17.287,0,0,1,1.553,19.7ZM34.2,17.539C33.487,10.2,26.822,4.547,19.418,4.547S5.348,10.2,4.632,17.539a.741.741,0,0,1-.743.649H1.551C1.975,9.075,9.983,1.516,19.418,1.516S36.86,9.075,37.284,18.188H34.946A.741.741,0,0,1,34.2,17.539ZM37.282,19.7a17.3,17.3,0,0,1-.726,4.06L35.1,23.373a15.436,15.436,0,0,0,.666-3.669ZM30.549,33.922h0a.759.759,0,0,1-.927.537l-.732-.2,1.373-5.124a.758.758,0,1,0-1.464-.392L27.425,33.87l-.732-.2a.759.759,0,0,1-.536-.928L28.9,22.5a.757.757,0,0,1,.929-.536l2.927.784a.759.759,0,0,1,.537.928ZM37.3,26.315l-1.962,7.321a.758.758,0,0,1-.928.536l-2.2-.589c2.568-9.492,2.164-8.223,2.385-8.776,2.306.619,2.172.58,2.219.6A.759.759,0,0,1,37.3,26.315Zm0,0" transform="translate(0)"/></g></svg>