<svg xmlns="http://www.w3.org/2000/svg" width="107" height="107" viewBox="0 0 107 107"><defs><style>.a{fill:#222;}</style></defs><path class="a" d="M101.946,45.8A12.251,12.251,0,0,1,98.3,41.5a12.57,12.57,0,0,1,1.022-5.776c1-3.128,2.031-6.359.517-8.977-1.535-2.648-4.883-3.376-8.12-4.075a12.408,12.408,0,0,1-5.43-1.962,12.408,12.408,0,0,1-1.951-5.427c-.7-3.239-1.421-6.588-4.077-8.123-2.616-1.514-5.848-.482-8.977.517A12.6,12.6,0,0,1,65.5,8.7a12.26,12.26,0,0,1-4.291-3.649C58.964,2.568,56.639,0,53.5,0s-5.464,2.568-7.7,5.054A12.25,12.25,0,0,1,41.5,8.7a12.6,12.6,0,0,1-5.776-1.022c-3.124-1-6.358-2.033-8.977-.517-2.648,1.535-3.376,4.883-4.075,8.12a12.408,12.408,0,0,1-1.962,5.43,12.408,12.408,0,0,1-5.427,1.951c-3.239.7-6.588,1.421-8.123,4.077-1.514,2.616-.482,5.849.517,8.977A12.566,12.566,0,0,1,8.7,41.5a12.26,12.26,0,0,1-3.649,4.291C2.568,48.036,0,50.361,0,53.5s2.568,5.464,5.054,7.713A12.25,12.25,0,0,1,8.7,65.505a12.57,12.57,0,0,1-1.022,5.776c-1,3.128-2.031,6.359-.517,8.977,1.535,2.648,4.883,3.376,8.12,4.075a12.408,12.408,0,0,1,5.43,1.953,12.408,12.408,0,0,1,1.951,5.427c.7,3.239,1.421,6.588,4.077,8.123,2.616,1.514,5.848.482,8.977-.517A12.6,12.6,0,0,1,41.5,98.3a12.26,12.26,0,0,1,4.291,3.649C48.036,104.432,50.361,107,53.5,107s5.464-2.568,7.713-5.054A12.25,12.25,0,0,1,65.505,98.3a12.6,12.6,0,0,1,5.776,1.022c3.126,1,6.356,2.033,8.977.517,2.648-1.535,3.376-4.883,4.075-8.12a12.408,12.408,0,0,1,1.953-5.43,12.408,12.408,0,0,1,5.427-1.951c3.239-.7,6.588-1.421,8.123-4.077,1.514-2.616.482-5.849-.517-8.977A12.566,12.566,0,0,1,98.3,65.5a12.26,12.26,0,0,1,3.649-4.291C104.432,58.964,107,56.639,107,53.5S104.432,48.036,101.946,45.8ZM99.553,58.57a14.087,14.087,0,0,0-4.7,6.013,14.491,14.491,0,0,0,1.07,7.782c.763,2.388,1.543,4.858.829,6.106-.747,1.289-3.312,1.842-5.79,2.377-2.686.58-5.462,1.179-7.2,2.916a14.314,14.314,0,0,0-2.918,7.2c-.535,2.477-1.088,5.041-2.374,5.785-1.254.722-3.722-.066-6.108-.827a14.526,14.526,0,0,0-7.781-1.07,14.074,14.074,0,0,0-6.015,4.7c-1.728,1.908-3.513,3.881-5.07,3.881s-3.342-1.972-5.07-3.881a14.087,14.087,0,0,0-6.013-4.7,7.039,7.039,0,0,0-1.808-.225h0a20.584,20.584,0,0,0-5.974,1.288c-2.393.763-4.858,1.543-6.106.829-1.289-.747-1.842-3.312-2.377-5.79-.58-2.686-1.179-5.462-2.916-7.2a14.314,14.314,0,0,0-7.2-2.918c-2.477-.535-5.041-1.088-5.785-2.374-.722-1.248.064-3.713.827-6.1a14.489,14.489,0,0,0,1.07-7.781,14.074,14.074,0,0,0-4.7-6.015c-1.908-1.728-3.881-3.513-3.881-5.07s1.972-3.342,3.888-5.07a14.087,14.087,0,0,0,4.7-6.013,14.491,14.491,0,0,0-1.07-7.782c-.763-2.388-1.543-4.858-.829-6.106.747-1.289,3.312-1.842,5.79-2.377,2.686-.58,5.462-1.179,7.2-2.916a14.314,14.314,0,0,0,2.918-7.2c.535-2.477,1.088-5.041,2.374-5.785,1.248-.728,3.713.064,6.1.827,2.641.845,5.377,1.716,7.781,1.07a14.074,14.074,0,0,0,6.015-4.7c1.728-1.908,3.513-3.881,5.07-3.881s3.342,1.972,5.07,3.881a14.087,14.087,0,0,0,6.013,4.7,14.513,14.513,0,0,0,7.782-1.07c2.391-.763,4.858-1.543,6.106-.829,1.289.747,1.842,3.312,2.377,5.79.58,2.686,1.179,5.462,2.916,7.2a14.314,14.314,0,0,0,7.2,2.918c2.477.535,5.041,1.088,5.785,2.374.722,1.25-.064,3.72-.827,6.108a14.489,14.489,0,0,0-1.07,7.781,14.074,14.074,0,0,0,4.7,6.015c1.908,1.728,3.881,3.513,3.881,5.07S101.461,56.842,99.553,58.57Z"/><path class="a" d="M233.783,71.133a1.783,1.783,0,0,0,1.783-1.783V65.783a1.783,1.783,0,0,0-3.567,0V69.35A1.783,1.783,0,0,0,233.783,71.133Z" transform="translate(-180.283 -49.733)"/><path class="a" d="M189.46,75.253a1.783,1.783,0,0,0,1.721,1.321,1.736,1.736,0,0,0,.465-.061,1.783,1.783,0,0,0,1.261-2.183l-.924-3.445c-.008-.031-.016-.062-.025-.093a1.783,1.783,0,0,0-3.419,1.017Z" transform="translate(-146.454 -54.021)"/><path class="a" d="M151.3,87.359l-.012-.021a1.783,1.783,0,0,0-3.077,1.8l1.783,3.091a1.783,1.783,0,0,0,3.089-1.783Z" transform="translate(-114.981 -67.184)"/><path class="a" d="M116.17,118.691a1.783,1.783,0,1,0,2.522-2.522l-2.523-2.523-.044-.044a1.783,1.783,0,0,0-2.478,2.566Z" transform="translate(-87.889 -87.889)"/><path class="a" d="M116.247,340.078l-2.523,2.523a1.783,1.783,0,1,0,2.522,2.522l2.523-2.523a1.783,1.783,0,0,0-2.522-2.522Z" transform="translate(-87.967 -263.88)"/><path class="a" d="M152.471,363.922a1.783,1.783,0,0,0-2.44.637l-1.783,3.091a1.783,1.783,0,1,0,3.089,1.783l1.783-3.091A1.783,1.783,0,0,0,152.471,363.922Z" transform="translate(-115.015 -282.607)"/><path class="a" d="M191.692,378.918a1.783,1.783,0,0,0-2.19,1.251l-.922,3.444a1.783,1.783,0,1,0,3.444.924l.924-3.445A1.783,1.783,0,0,0,191.692,378.918Z" transform="translate(-146.495 -294.402)"/><path class="a" d="M233.783,384A1.783,1.783,0,0,0,232,385.783v3.567a1.783,1.783,0,0,0,3.567,0v-3.567A1.783,1.783,0,0,0,233.783,384Z" transform="translate(-180.283 -298.4)"/><path class="a" d="M274.856,380.17a1.783,1.783,0,0,0-3.445.922l.924,3.445a1.783,1.783,0,1,0,3.444-.924Z" transform="translate(-210.863 -294.402)"/><path class="a" d="M283.48,410.272Z" transform="translate(-220.288 -318.816)"/><path class="a" d="M311.3,364.487l-.012-.021a1.783,1.783,0,1,0-3.077,1.8l1.783,3.091a1.783,1.783,0,1,0,3.089-1.783Z" transform="translate(-239.313 -282.536)"/><path class="a" d="M342.6,340.078a1.783,1.783,0,0,0-2.522,2.522l2.523,2.523a1.783,1.783,0,1,0,2.522-2.522Z" transform="translate(-263.88 -263.88)"/><path class="a" d="M341.265,119.214h0a1.783,1.783,0,0,0,1.261-.523l2.523-2.523.044-.044a1.783,1.783,0,0,0-2.565-2.478L340,116.17a1.783,1.783,0,0,0,1.261,3.044Z" transform="translate(-263.806 -87.89)"/><path class="a" d="M309.79,93.125a1.783,1.783,0,0,0,1.546-.892l1.783-3.091.012-.021a1.783,1.783,0,1,0-3.1-1.762l-1.783,3.091a1.783,1.783,0,0,0,1.543,2.675Z" transform="translate(-239.348 -67.184)"/><path class="a" d="M272.665,76.515a1.733,1.733,0,0,0,.464.061h0a1.783,1.783,0,0,0,1.721-1.321l.922-3.444c.009-.031.017-.062.025-.093a1.783,1.783,0,0,0-3.469-.831l-.924,3.445A1.783,1.783,0,0,0,272.665,76.515Z" transform="translate(-210.856 -54.021)"/><path class="a" d="M208.05,200.967H195.567V192.05h8.917a1.783,1.783,0,1,0,0-3.567h-8.917v-8.917H208.05a1.783,1.783,0,0,0,0-3.567H193.783A1.783,1.783,0,0,0,192,177.783V202.75a1.783,1.783,0,0,0,1.783,1.783H208.05a1.783,1.783,0,0,0,0-3.567Z" transform="translate(-149.2 -136.767)"/><path class="a" d="M90.272,203.863a1.739,1.739,0,0,0,.437.376,1.808,1.808,0,0,0,.178.116,1.745,1.745,0,0,0,.742.178,1.784,1.784,0,0,0,.621-.125,2.014,2.014,0,0,0,.2-.1,1.81,1.81,0,0,0,.218-.111c.039-.027.059-.07.095-.1a1.678,1.678,0,0,0,.255-.271,1.4,1.4,0,0,0,.3-.583,1.832,1.832,0,0,0,.071-.357c0-.05.029-.093.029-.143V177.783A1.783,1.783,0,0,0,91.629,176h0a1.783,1.783,0,0,0-1.783,1.783v19.4l-14.6-20.439c-.027-.039-.07-.059-.1-.095a1.67,1.67,0,0,0-.271-.255,1.789,1.789,0,0,0-.269-.178,1.838,1.838,0,0,0-.31-.116,1.634,1.634,0,0,0-.357-.071c-.048,0-.089-.029-.139-.029a1.515,1.515,0,0,0-.178.037,1.674,1.674,0,0,0-.357.07,40.537,40.537,0,0,0-.5.226c-.039.027-.059.07-.095.1a1.67,1.67,0,0,0-.255.271,1.746,1.746,0,0,0-.178.268,1.712,1.712,0,0,0-.118.316,1.815,1.815,0,0,0-.071.357c0,.05-.029.093-.029.143V202.75a1.783,1.783,0,1,0,3.567,0v-19.4l14.6,20.439C90.206,203.82,90.245,203.832,90.272,203.863Z" transform="translate(-55.962 -136.767)"/><path class="a" d="M307.126,176.037h-.005A1.783,1.783,0,0,0,305,177.4h0l-3.98,18.579-5.068-15.2a1.783,1.783,0,0,0-3.388,0l-5.061,15.2-3.98-18.579a1.784,1.784,0,0,0-3.488.749l5.35,24.967a1.778,1.778,0,0,0,3.428.189l5.45-16.325,5.443,16.325a1.783,1.783,0,0,0,1.691,1.22h.1a1.783,1.783,0,0,0,1.644-1.405l5.35-24.967A1.783,1.783,0,0,0,307.126,176.037Z" transform="translate(-217.58 -136.763)"/></svg>