<svg xmlns="http://www.w3.org/2000/svg" width="45.599" height="38" viewBox="0 0 45.599 38"><defs><style>.a{fill:#222;}</style></defs><g transform="translate(0 -42.66)"><g transform="translate(0 42.66)"><path class="a" d="M32.3,42.66H27.55a4.75,4.75,0,0,1-9.5,0H13.3L0,50.26,3.8,60.71l5.7-1.9V80.66H36.1V58.81l5.7,1.9,3.8-10.45Zm8.345,15.663L36.7,57.008l-2.5-.834V78.759H11.4V56.173l-2.5.834L4.954,58.323,2.333,51.115,13.8,44.56h2.621a6.651,6.651,0,0,0,12.747,0h2.622l11.472,6.555Z" transform="translate(0 -42.66)"/></g></g></svg>