<svg xmlns="http://www.w3.org/2000/svg" width="46.512" height="41.344" viewBox="0 0 46.512 41.344"><defs><style>.a{fill:#ffd933;}</style></defs><path class="a" d="M42.645,24.331l3.817-16.8a1.938,1.938,0,0,0-1.89-2.367H12.856l-.74-3.618A1.938,1.938,0,0,0,10.217,0H1.938A1.938,1.938,0,0,0,0,1.938V3.23A1.938,1.938,0,0,0,1.938,5.168H7.581L13.253,32.9a4.522,4.522,0,1,0,5.414.692H35.6a4.521,4.521,0,1,0,5.135-.84l.445-1.96a1.938,1.938,0,0,0-1.89-2.367H17.613l-.529-2.584H40.756A1.938,1.938,0,0,0,42.645,24.331Z"/></svg>