<svg xmlns="http://www.w3.org/2000/svg" width="25.719" height="38" viewBox="0 0 25.719 38"><defs><style>.a{fill:#222;}</style></defs><path class="a" d="M46.3,38a17.17,17.17,0,0,1-3.195-.3c-.409-.077-.736-.138-.881-.162a3.319,3.319,0,0,1-1.15-.471l-.012-.008a7.926,7.926,0,0,1-2.282-2.305A18.99,18.99,0,0,1,37.6,32.667a.381.381,0,0,1-.019-.037,59.29,59.29,0,0,1-2.448-5.706.361.361,0,0,1-.016-.047c-.049-.142-.088-.261-.115-.353-.281-.962-2.691-9.632-.914-17.58a9.8,9.8,0,0,1,3.173-5.267.368.368,0,0,1,.084-.074,15.289,15.289,0,0,1,4.41-2.594.35.35,0,0,1,.065-.026c.673-.263,1.309-.467,1.87-.624a9.645,9.645,0,0,1,5.22,0c.561.158,1.2.362,1.87.624a.353.353,0,0,1,.065.026A15.286,15.286,0,0,1,55.251,3.6a.375.375,0,0,1,.084.073,9.8,9.8,0,0,1,3.173,5.267c1.777,7.948-.633,16.618-.914,17.58-.027.092-.065.211-.115.353a.361.361,0,0,1-.016.046,59.187,59.187,0,0,1-2.448,5.706.329.329,0,0,1-.018.036,18.961,18.961,0,0,1-1.18,2.088,7.923,7.923,0,0,1-2.281,2.3l-.015.009a3.316,3.316,0,0,1-1.15.47c-.144.024-.472.085-.88.162A17.2,17.2,0,0,1,46.3,38Zm-4.482-1.368a2.164,2.164,0,0,0,.527.181c.147.025.48.086.9.165a16.406,16.406,0,0,0,6.117,0c.416-.079.749-.14.9-.165a2.16,2.16,0,0,0,.528-.181,11.77,11.77,0,0,1-.857-1.31l-3.6.165c-.007,0-.014,0-.021,0s-.014,0-.021,0l-3.6-.165A11.791,11.791,0,0,1,41.814,36.633Zm-3.508-4.182a17.681,17.681,0,0,0,1.076,1.889,7.478,7.478,0,0,0,1.795,1.916,11.394,11.394,0,0,0,.842-1.273l-3.072-3.937A6.3,6.3,0,0,0,38.307,32.451Zm12.266,2.532a11.394,11.394,0,0,0,.842,1.273,7.468,7.468,0,0,0,1.795-1.916,17.642,17.642,0,0,0,1.076-1.889,6.339,6.339,0,0,0-.641-1.4ZM43.021,34.6l3.275.149,3.275-.149-.033-.083a13.362,13.362,0,0,1-.43-1.425l-2.8.073s-.01,0-.012,0a.036.036,0,0,0-.012,0l-2.8-.073a13.364,13.364,0,0,1-.43,1.425C43.043,34.549,43.032,34.577,43.021,34.6Zm6.773-1.785a13.371,13.371,0,0,0,.425,1.424l2.946-3.774c-.213-.2-.472-.407-.766-.637Zm-10.366-2.35,2.946,3.774A13.359,13.359,0,0,0,42.8,32.82l-2.6-2.988C39.9,30.063,39.641,30.27,39.428,30.469Zm4.234,1.9,2.634.069,2.634-.069c-.121-.522-.242-1.086-.355-1.656l-2.255.117a.069.069,0,0,1-.024,0s-.016,0-.024,0l-2.255-.117C43.9,31.281,43.784,31.845,43.662,32.367Zm5.6-1.951c.1.522.21,1.04.32,1.526l2.236-2.566c-.339-.272-.708-.583-1.1-.951Zm-8.494-1.04,2.236,2.566c.11-.486.218-1,.32-1.526l-1.457-1.99C41.479,28.793,41.11,29.1,40.771,29.376ZM54.094,30.4c.039.052.076.1.111.158a6.985,6.985,0,0,1,.525.986c.8-1.692,1.57-3.564,1.95-4.609-.136-.084-.319-.194-.52-.308ZM35.912,26.935c.381,1.045,1.147,2.917,1.95,4.609a6.98,6.98,0,0,1,.525-.987c.035-.054.071-.106.111-.158l-2.067-3.772C36.231,26.741,36.049,26.851,35.912,26.935Zm8.245,3.048,2.139.111,2.139-.111c-.094-.5-.18-1-.255-1.462a4.531,4.531,0,0,0-.1-.444l-1.745.169c-.014,0-.033,0-.043,0s-.029,0-.043,0l-1.745-.169c-.04.151-.073.3-.1.444C44.337,28.986,44.251,29.481,44.157,29.983Zm8.655-.759c.279.219.53.418.751.615l1.946-3.552c-.368-.174-.747-.344-1-.456Zm-15.73-2.937,1.946,3.552c.22-.2.472-.4.751-.615l-1.693-3.393C37.83,25.944,37.451,26.113,37.083,26.287ZM42.4,27.9l1.114,1.522c.063-.35.121-.693.174-1.022a5.446,5.446,0,0,1,.137-.608l-.7-.65c-.18.182-.357.365-.526.547Q42.5,27.8,42.4,27.9Zm6.37-.108a5.428,5.428,0,0,1,.137.608c.053.329.112.673.174,1.022L50.194,27.9q-.1-.1-.2-.211c-.169-.182-.346-.365-.526-.547Zm2.336-.02c.4.381.774.7,1.12.983l.8-1.609a.367.367,0,0,1-.074-.009,10.527,10.527,0,0,1-1.428-.457Zm-11.539-.626.8,1.609c.346-.28.724-.6,1.12-.983l-.42-1.093a10.536,10.536,0,0,1-1.428.457A.352.352,0,0,1,39.565,27.148Zm5.179.213,1.552.15,1.552-.15a16.572,16.572,0,0,0-1.552-2.9A16.632,16.632,0,0,0,44.744,27.361Zm-3.007-.985.317.823.007-.007c.188-.2.385-.407.587-.609l-.346-.546-.1.071h0A5.287,5.287,0,0,1,41.737,26.376Zm8.208.207c.2.2.4.406.587.609l.006.007.317-.823a5.247,5.247,0,0,1-.46-.268h0l-.1-.071Zm-6.3.046.436.4a13.532,13.532,0,0,1,.67-1.427C44.4,25.922,44.023,26.269,43.648,26.629Zm4.189-1.023a13.516,13.516,0,0,1,.671,1.427l.436-.4C48.569,26.269,48.191,25.922,47.838,25.606Zm3.648.26a9.84,9.84,0,0,0,1.48.519,9.052,9.052,0,0,0,2.313-3.619,6.813,6.813,0,0,0,.289-.827.349.349,0,0,1,.013-.047,16.268,16.268,0,0,0,.2-5.9,19.026,19.026,0,0,1-2.553,3.963l-.007.009A19.788,19.788,0,0,1,49.1,23.926a11.938,11.938,0,0,0,1.311,1.282l.027.022c.121.1.242.186.361.265h0a5.04,5.04,0,0,0,.659.359ZM37.021,21.921a6.842,6.842,0,0,0,.293.845,9.053,9.053,0,0,0,2.314,3.619,9.846,9.846,0,0,0,1.479-.518l.027-.012a5.051,5.051,0,0,0,.659-.359h0c.119-.079.24-.168.361-.264l.028-.022a11.932,11.932,0,0,0,1.311-1.282,19.781,19.781,0,0,1-4.121-3.959l-.007-.008A19.026,19.026,0,0,1,36.812,16a16.253,16.253,0,0,0,.205,5.912Zm19.425,4.023c.173.1.335.192.472.274a41.812,41.812,0,0,0,.981-4.674c-.1.074-.21.148-.319.219Zm-21.751-4.4a41.812,41.812,0,0,0,.981,4.674c.137-.083.3-.178.472-.274l-1.134-4.181C34.9,21.693,34.8,21.618,34.694,21.544Zm12.637,2.647c.551.468,1.318,1.138,2.078,1.866l.3-.478a13.968,13.968,0,0,1-1.343-1.373ZM42.88,25.58l.3.478c.76-.728,1.526-1.4,2.078-1.866l-1.038.015A14.013,14.013,0,0,1,42.88,25.58Zm11.995-.389c.246.109.576.257.9.411l.921-3.4a3.808,3.808,0,0,1-.484.133,7.369,7.369,0,0,1-.261.715A16.71,16.71,0,0,1,54.875,25.191ZM35.894,22.205l.921,3.4c.327-.154.656-.3.9-.411a16.673,16.673,0,0,1-1.079-2.137,7.4,7.4,0,0,1-.261-.715A3.779,3.779,0,0,1,35.894,22.205Zm11.259,1.25,1.292.018a11.452,11.452,0,0,0,1.442-1.086l-1.011-1.35A18.616,18.616,0,0,1,47.153,23.455Zm-4.448-1.067a11.472,11.472,0,0,0,1.442,1.085l1.292-.018a18.629,18.629,0,0,1-1.723-2.418Zm4.964-2.4c-.235.925-.452,1.764-.625,2.425a21.708,21.708,0,0,0,1.314-1.948Zm-3.436.476a21.716,21.716,0,0,0,1.314,1.948c-.173-.661-.39-1.5-.625-2.425Zm1.383-.728c.259,1.02.5,1.938.679,2.634.183-.7.421-1.614.679-2.634l-.679-.024Zm-5.475.007a23.652,23.652,0,0,0,2.015,2.147l1.153-1.54c-.415-.715-.866-1.554-1.348-2.537Zm9.141.607,1.153,1.54a23.649,23.649,0,0,0,2.015-2.147l-1.819-1.93C50.15,18.8,49.7,19.64,49.283,20.355Zm-13.6.957a2.961,2.961,0,0,0,.481.21,15.2,15.2,0,0,1-.253-3.679l-.448-.529Zm20.993-3.47a15.2,15.2,0,0,1-.253,3.679,2.975,2.975,0,0,0,.481-.21l.22-4Zm1.235-1.457L57.671,20.8c.158-.121.291-.23.378-.3a41.552,41.552,0,0,0,.357-4.689Zm-23.37,4.109c.087.073.221.183.378.3l-.243-4.412-.492-.581A41.558,41.558,0,0,0,34.544,20.494Zm13.318-1.262.871.6c.412-.716.861-1.559,1.339-2.545l-1.465-1.11C48.366,17.2,48.108,18.248,47.861,19.232Zm-5.341-1.943c.479.987.928,1.829,1.339,2.545l.871-.6c-.247-.984-.5-2.034-.745-3.054Zm-4.179-.017a20.705,20.705,0,0,0,1.333,1.9l1.944-2.063q-.223-.473-.454-.987c-.332-.74-.642-1.475-.929-2.2Zm12.631-.164,1.944,2.063a20.62,20.62,0,0,0,1.333-1.9l-1.894-3.347c-.287.721-.6,1.456-.929,2.2Q51.2,16.636,50.973,17.109Zm-6.3-1.2c.243,1.033.5,2.1.756,3.1l.846-.03c.006,0,.01,0,.017,0s.011,0,.017,0l.846.03c.251-1,.513-2.068.756-3.1H44.678Zm-9.258.212.563.664a21.647,21.647,0,0,1,.313-2.244,18.5,18.5,0,0,0-.439-2.841ZM56.3,14.544a21.555,21.555,0,0,1,.313,2.244l.563-.664-.437-4.42A18.434,18.434,0,0,0,56.3,14.544Zm-7.507.851,1.605,1.216q.179-.382.362-.791c.4-.886.763-1.766,1.1-2.621l-2.3-1.732c-.223,1.321-.448,2.529-.653,3.437C48.864,15.067,48.827,15.231,48.789,15.4ZM40.74,13.2c.333.856.7,1.735,1.1,2.621q.183.409.362.791L43.8,15.4c-.038-.165-.075-.329-.112-.49-.205-.908-.429-2.116-.653-3.437Zm-3.71,1.313a9.783,9.783,0,0,0,.883,2.026l1.979-3.5c-.358-.94-.677-1.848-.96-2.7L37,14.137C37.017,14.321,37.026,14.452,37.03,14.512Zm15.67-1.47,1.979,3.5a9.786,9.786,0,0,0,.883-2.026c0-.061.013-.191.031-.375l-1.932-3.8C53.378,11.194,53.058,12.1,52.7,13.043Zm4.614-2.952.52,5.253.573-.676a27.717,27.717,0,0,0-.585-5.419A6.942,6.942,0,0,0,57.314,10.091ZM34.186,14.668l.573.676.52-5.253a6.883,6.883,0,0,0-.508-.841A27.7,27.7,0,0,0,34.186,14.668Zm12.111.509h1.789q.05-.219.1-.433c.21-.931.441-2.182.67-3.547l-2.539.107c-.007,0-.015,0-.02,0s-.013,0-.02,0L43.738,11.2c.23,1.365.46,2.616.67,3.547q.048.214.1.433Zm-10.23-5.146a7.172,7.172,0,0,1,.371,1,15.6,15.6,0,0,1,.4,1.816l1.778-3.495c-.3-.968-.556-1.847-.76-2.6ZM53.98,9.348l1.778,3.495a15.649,15.649,0,0,1,.4-1.816,7.148,7.148,0,0,1,.371-1L54.741,6.747C54.537,7.5,54.284,8.38,53.98,9.348ZM39.427,9.49c.3.934.645,1.943,1.04,3L42.9,10.651c-.21-1.282-.416-2.632-.6-3.892ZM49.69,10.651l2.436,1.835c.395-1.053.741-2.062,1.04-3L50.29,6.759C50.105,8.019,49.9,9.369,49.69,10.651Zm-6.074-.194,2.681.113,2.681-.113c.221-1.357.438-2.788.63-4.1L46.3,6.191l-3.311.161C43.177,7.669,43.394,9.1,43.615,10.457Zm11.4-4.748,1.927,3.545a6.969,6.969,0,0,1,.648-.9,9.041,9.041,0,0,0-2.315-3.723C55.209,4.908,55.122,5.273,55.012,5.709ZM35,8.352a6.944,6.944,0,0,1,.649.9L37.58,5.709c-.11-.436-.2-.8-.261-1.08A9.044,9.044,0,0,0,35,8.352ZM50.42,5.869l2.99,2.84c.331-1.079.594-2.032.794-2.8L50.776,3.343C50.677,4.058,50.556,4.925,50.42,5.869Zm-12.032.037c.2.771.463,1.724.794,2.8l2.99-2.84c-.136-.944-.257-1.811-.356-2.526Zm7.93-.449,3.395.165c.142-.985.266-1.88.364-2.6L46.3,2.917l-3.782.108c.1.717.223,1.612.364,2.6l3.395-.165c.008,0,.014-.009.023,0C46.3,5.448,46.311,5.456,46.319,5.457Zm4.57-2.946L54.4,5.134c.121-.494.2-.862.25-1.076a14.341,14.341,0,0,0-3.672-2.2C50.953,2.034,50.924,2.254,50.889,2.511ZM37.944,4.058c.046.214.129.583.25,1.076L41.7,2.511c-.035-.257-.064-.477-.088-.652A14.337,14.337,0,0,0,37.944,4.058ZM46.31,2.182l3.868.11c.04-.3.073-.542.1-.713-.561-.21-1.092-.378-1.565-.511a8.9,8.9,0,0,0-4.823,0c-.474.133-1,.3-1.565.511.023.171.055.413.1.713l3.868-.11h.027Z" transform="translate(-33.436 -0.001)"/></svg>