<svg xmlns="http://www.w3.org/2000/svg" width="99.875" height="107" viewBox="0 0 99.875 107"><defs><style>.a{fill:#222;}</style></defs><path class="a" d="M50.437,10.7a1.783,1.783,0,0,0-1.783,1.783v5.849l-9.371,3.123L21.546,25a1.794,1.794,0,0,0-.608.242L1.322,37.725a1.785,1.785,0,0,0-.548,2.463L13.257,59.8a1.784,1.784,0,0,0,2.706.356l4.157-3.768v48.821A1.783,1.783,0,0,0,21.9,107H78.97a1.783,1.783,0,0,0,1.783-1.783V56.775l4.222,3.453a1.746,1.746,0,0,0,1.373.385,1.768,1.768,0,0,0,1.216-.744l12.483-17.834a1.782,1.782,0,0,0-.412-2.464L80.019,25.3a1.768,1.768,0,0,0-.7-.3L61.592,21.452,52.22,18.329V14.01A7.121,7.121,0,1,0,43.3,7.13a1.783,1.783,0,1,0,3.567,0A3.567,3.567,0,1,1,50.437,10.7Zm0,10.8,8.792,2.935a8.874,8.874,0,0,1-17.584,0ZM96.123,41.425,85.747,56.25,80.1,51.63a1.783,1.783,0,0,0-2.914,1.382v50.419h-53.5V52.361A1.783,1.783,0,0,0,20.7,51.041L15.137,56.1,4.747,39.778,22.581,28.43l15.551-3.11a12.483,12.483,0,0,0,24.6,0l15.5,3.1Zm0,0" transform="translate(-0.495 0.002)"/></svg>