<?xml version="1.0" encoding="iso-8859-1"?>
<!-- Generator: Adobe Illustrator 18.1.1, SVG Export Plug-In . SVG Version: 6.00 Build 0)  -->
<svg version="1.1" id="Capa_1" xmlns="http://www.w3.org/2000/svg" xmlns:xlink="http://www.w3.org/1999/xlink" x="0px" y="0px"
	 viewBox="0 0 416.769 416.769" style="enable-background:new 0 0 416.769 416.769;" xml:space="preserve">
<g>
	<path d="M306.759,130.769h-17.874V90.306c0-3.674-1.677-6.537-5.351-6.537H27.675c-3.671,0-5.791,2.863-5.791,6.537v309.43
		c0,11.6,8.504,17.033,20.006,17.033h227.433c11.502,0,19.56-5.433,19.56-17.033v-55.967h15.732
		c50.826,0,90.268-36.786,90.268-88.203v-30.463C394.884,174.887,356.403,130.769,306.759,130.769z M381.884,255.566
		c0,44.089-33.77,73.203-77.268,73.203h-21.083c-3.674,0-7.649,9.722-7.649,13.397v57.57c0,4.271-2.393,4.033-6.56,4.033H41.891
		c-4.174,0-6.006,0.239-6.006-4.033V97.769h240v42.909c0,3.674,3.975,3.091,7.649,3.091h23.225
		c42.316,0,75.126,38.446,75.126,81.334V255.566z"/>
	<path d="M304.616,164.769h-17.481c-3.674,0-5.251,6.911-5.251,10.585v128.734c0,3.674,1.577,5.681,5.251,5.681h17.481
		c30.756,0,57.268-24.33,57.268-55.429v-29.237C361.884,194.003,335.372,164.769,304.616,164.769z M348.884,254.339
		c0,23.764-20.841,43.429-44.268,43.429h-9.732v-121h9.732c23.427,0,44.268,24.569,44.268,48.334V254.339z"/>
	<path d="M190.397,191.31c-10.905,0-23.858,5.595-35.513,15.182c-11.656-9.587-24.609-15.182-35.514-15.182
		c-8.157,0-15.44,3.012-21.067,8.704c-16.978,17.195-17.29,44.452-0.633,62.141l52.424,53.677c1.249,1.286,2.966,1.936,4.755,1.936
		h0.003c1.791,0,3.505-0.651,4.755-1.936l52.537-53.758c16.618-17.597,16.319-44.857-0.681-62.078
		C205.84,194.304,198.553,191.31,190.397,191.31z M202.549,252.905l-47.694,48.84l-47.587-48.788
		c-11.454-12.165-11.233-31.723,0.493-43.595c3.161-3.201,6.959-4.758,11.61-4.758c8.909,0,20.769,5.965,30.95,15.579
		c2.564,2.415,6.563,2.415,9.127,0c10.181-9.614,22.041-15.579,30.95-15.579c4.651,0,8.448,1.557,11.606,4.751
		C213.746,221.253,213.954,240.824,202.549,252.905z"/>
	<path d="M122.884,73.117c3.67,0,7-2.973,7-6.647V26.588c0-3.674-3.33-6.647-7-6.647c-3.671,0-7,2.973-7,6.647V66.47
		C115.884,70.144,119.214,73.117,122.884,73.117z"/>
	<path d="M162.384,53.176c3.67,0,7.5-2.973,7.5-6.647V6.647c0-3.674-3.83-6.647-7.5-6.647c-3.671,0-7.5,2.973-7.5,6.647v39.882
		C154.884,50.203,158.714,53.176,162.384,53.176z"/>
	<path d="M201.884,66.47c3.674,0,7-2.973,7-6.647V19.941c0-3.674-3.326-6.647-7-6.647c-3.671,0-7,2.973-7,6.647v39.882
		C194.884,63.497,198.214,66.47,201.884,66.47z"/>
</g>
<g>
</g>
<g>
</g>
<g>
</g>
<g>
</g>
<g>
</g>
<g>
</g>
<g>
</g>
<g>
</g>
<g>
</g>
<g>
</g>
<g>
</g>
<g>
</g>
<g>
</g>
<g>
</g>
<g>
</g>
</svg>
