<svg xmlns="http://www.w3.org/2000/svg" width="66.925" height="107" viewBox="0 0 66.925 107"><defs><style>.a{fill:#222;}</style></defs><path class="a" d="M76.865,107H67.08c-.065,0-6.468-.016-8.725-1.414a14.426,14.426,0,0,1-3.48-3.975L45.3,86.526a1.043,1.043,0,0,1-.16-.484c-.008-.109-.773-10.958-1.187-16.135A35.888,35.888,0,0,0,41.793,60.5a1.035,1.035,0,0,1-.068-.527l.153-1.17c-.773-1.091-2.491-4.365-3.233-12.581-.773-8.566,1.97-11.945,3.155-12.985l.405-15.554c-.014-.665.076-7.517,9.26-12.785C60.453-.256,71.118-.019,71.972.008c.856-.027,11.52-.264,20.507,4.891,9.184,5.268,9.274,12.122,9.26,12.785l.405,15.554c1.184,1.04,3.928,4.419,3.155,12.985-.742,8.216-2.46,11.49-3.233,12.581l.152,1.17a1.048,1.048,0,0,1-.068.526,36.022,36.022,0,0,0-2.163,9.407c-.414,5.177-1.18,16.026-1.187,16.135a1.037,1.037,0,0,1-.16.484l-9.578,15.1a14.415,14.415,0,0,1-3.473,3.962C83.333,106.982,76.929,107,76.865,107ZM47.2,85.633l9.439,14.875a12.645,12.645,0,0,0,2.811,3.307c1.065.66,4.8,1.1,7.629,1.1h9.785c2.825,0,6.565-.443,7.629-1.1a12.824,12.824,0,0,0,2.8-3.294l9.446-14.888c.117-1.654.759-10.7,1.142-15.54-.474.921-.936,1.755-1.344,2.39-.579.9-1.16,1.707-1.725,2.481q-.5.731-1.06,1.454a29.154,29.154,0,0,0-2.744,4.551A50.278,50.278,0,0,0,88.418,87.5l.791,4.366a1.047,1.047,0,0,1-.056.569c-.377.949-2.322,5.742-3.63,6.9-1.249,1.1-3.922.249-5.713-.524l-.786,2.5a1.041,1.041,0,0,1-.993.728H65.915a1.04,1.04,0,0,1-.993-.729l-.786-2.5c-1.791.773-4.463,1.626-5.713.524-1.309-1.155-3.254-5.948-3.63-6.9a1.038,1.038,0,0,1-.056-.569l.79-4.366a50.247,50.247,0,0,0-2.594-6.529,27.193,27.193,0,0,0-1.672-2.983,25.833,25.833,0,0,1-2.39-3.374c-.484-.667-.976-1.363-1.468-2.128-.408-.636-.87-1.469-1.344-2.39C46.442,74.929,47.084,83.979,47.2,85.633ZM71.972,99.955h5.294l.488-1.553H66.191l.488,1.553ZM56.838,91.941c.991,2.453,2.367,5.3,2.962,5.829.408.2,2.177-.28,3.854-1.03a13.5,13.5,0,0,0-.409-1.581c-.112-.355-.214-.761-.333-1.231s-.26-1.031-.436-1.621l-1.688,1.727a1.041,1.041,0,0,1-1.642-.2L57.12,90.383Zm23.452,4.8c1.679.748,3.454,1.223,3.882,1.009.569-.506,1.943-3.355,2.934-5.808l-.282-1.557L84.8,93.835a1.041,1.041,0,0,1-1.642.2l-1.688-1.727c-.176.589-.314,1.136-.436,1.62s-.221.875-.333,1.23A13.469,13.469,0,0,0,80.29,96.739Zm-14.6-.418H78.251a15.724,15.724,0,0,1,.465-1.789c.094-.3.189-.675.3-1.112.144-.571.316-1.253.553-2.006H64.379c.236.753.408,1.435.553,2.006.11.438.206.816.3,1.113A15.984,15.984,0,0,1,65.694,96.321Zm16.564-6.182,1.435,1.468,2.694-4.588c.133-.442.6-1.944,1.421-3.955l-.045.047c-1.142,1.189-2.22,2.312-3.18,3.388A13.781,13.781,0,0,0,82.258,90.138Zm-24.7-3.119,2.695,4.588,1.435-1.468a13.815,13.815,0,0,0-2.326-3.64c-.925-1.036-2.006-2.114-3.152-3.252C56.982,85.165,57.428,86.591,57.557,87.019Zm14.415,2.312h8.369a15.9,15.9,0,0,1,2.69-4.218c.985-1.1,2.076-2.241,3.232-3.444a83.473,83.473,0,0,0,5.828-6.5c.262-.365.522-.72.782-1.073l.245-.334c1.478-2.171,1.557-4.612,1.641-7.2a30.928,30.928,0,0,1,.288-3.847,9.586,9.586,0,0,0,.079-1.836c-1.622,2.521-5.35,4-7.25,4.455-2.147.513-6.668,1.329-6.86,1.363a1.037,1.037,0,0,1-.93-.3,9.91,9.91,0,0,1-2.213-3.287l-.029-.1a21.826,21.826,0,0,1-5.871.69,21.843,21.843,0,0,1-5.87-.69l-.029.1A9.91,9.91,0,0,1,63.86,66.4a1.041,1.041,0,0,1-.93.3c-.191-.034-4.713-.85-6.861-1.363-1.9-.454-5.627-1.934-7.249-4.455a9.544,9.544,0,0,0,.079,1.836,30.546,30.546,0,0,1,.293,3.905c.074,2.368.143,4.605,1.426,6.851l.454.621c.62.846,1.251,1.706,1.882,2.678,1.423,1.715,3.065,3.348,4.673,4.948,1.186,1.18,2.307,2.294,3.285,3.391a15.908,15.908,0,0,1,2.69,4.219h8.371ZM44.34,61.384c.391.92,1.579,3.683,2.8,6.216-.011-.3-.021-.609-.031-.912a28.909,28.909,0,0,0-.269-3.646c-.606-3.837,1.456-10.718,1.816-11.877V41.541a58.194,58.194,0,0,0-1.577-12.5V50.324a1.04,1.04,0,0,1-.032.253ZM95.285,51.166c.36,1.159,2.421,8.04,1.816,11.877a29.477,29.477,0,0,0-.263,3.59c-.01.319-.021.64-.034.962,1.224-2.532,2.41-5.291,2.8-6.21L96.894,50.577a1.041,1.041,0,0,1-.032-.253V29.049A58.2,58.2,0,0,0,95.285,41.54ZM50.109,55.04a8.291,8.291,0,0,0,.214,4.258c.891,2.053,4.294,3.552,6.23,4.015,1.654.4,4.883,1,6.183,1.236a7.025,7.025,0,0,0,1.333-2l.1-.372c-1.477-.814-4.929-2.706-7.5-4.011C54.394,57.013,51.639,55.738,50.109,55.04Zm29.662,7.142.1.372a7,7,0,0,0,1.333,2c1.3-.238,4.53-.841,6.183-1.236,1.936-.463,5.339-1.962,6.23-4.015a8.261,8.261,0,0,0,.215-4.259c-1.529.7-4.285,1.974-6.566,3.132C84.7,59.476,81.248,61.367,79.771,62.182Zm-13.9-1.441a16.266,16.266,0,0,0,6.1.882,16.271,16.271,0,0,0,6.1-.882c.451-.25,5.03-2.789,8.252-4.425,2.681-1.361,6-2.88,7.284-3.461-.208-.735-.353-1.194-.358-1.212a1.043,1.043,0,0,1-.05-.317V41.541c0-8.391,2.588-17,3.448-19.632-.685-.381-2.133-1.139-5.142-2.588A26.562,26.562,0,0,0,83.1,16.767L80.38,42.014a1.042,1.042,0,0,1-.883.918l-7.374,1.083a1.054,1.054,0,0,1-.3,0l-7.373-1.084a1.04,1.04,0,0,1-.883-.918l-2.373-22c0-.017,0-.033-.006-.05l-.345-3.2a26.564,26.564,0,0,0-8.407,2.554c-3.009,1.449-4.457,2.207-5.142,2.588.861,2.632,3.448,11.241,3.448,19.632v9.785a1.037,1.037,0,0,1-.049.317c-.006.018-.151.477-.359,1.212,1.282.58,4.6,2.1,7.284,3.461C60.839,57.951,65.418,60.491,65.868,60.74ZM98.943,50.2l1.732,6.905c.665-1.213,1.942-4.327,2.551-11.063.823-9.116-2.606-11.361-2.641-11.383a1.079,1.079,0,0,1-.508-.867l-.419-16.075c0-.023,0-.047,0-.07.007-.244.081-6.177-8.215-10.936C82.805,1.75,72.118,2.087,72.011,2.089c-.025,0-.053,0-.078,0-.106,0-10.792-.34-19.432,4.616-8.3,4.759-8.222,10.692-8.214,10.942,0,.019,0,.045,0,.064l-.419,16.075a1.04,1.04,0,0,1-.526.877c-.018.011-3.447,2.256-2.623,11.373.606,6.716,1.878,9.831,2.552,11.059L45,50.2V21.483a1.043,1.043,0,0,1,.088-.444s0,0,0,0a0,0,0,0,0,0,0c.008-.017.016-.033.024-.05a0,0,0,0,1,0,0v0h0a1.043,1.043,0,0,1,.125-.188.75.75,0,0,1,.06-.067,1.06,1.06,0,0,1,.153-.127,53.068,53.068,0,0,1,6.075-3.153,25.793,25.793,0,0,1,10.236-2.829,1.04,1.04,0,0,1,1.034.929l.355,3.294H80.786l.355-3.294a1.04,1.04,0,0,1,1.034-.929,25.793,25.793,0,0,1,10.236,2.829A52.734,52.734,0,0,1,98.49,20.6a.993.993,0,0,1,.144.119.948.948,0,0,1,.073.08c.012.016.025.031.036.047a1.047,1.047,0,0,1,.162.337h0a1.041,1.041,0,0,1,.036.3V50.2Zm-33.4-9.206,6.425.944,6.426-.944,2.165-20.068H63.382Z" transform="translate(-38.51 0.001)"/></svg>